<?xml version="1.0" encoding="utf-8"?>
<!-- Generator: Adobe Illustrator 26.2.1, SVG Export Plug-In . SVG Version: 6.00 Build 0)  -->
<svg version="1.1" id="图层_1" xmlns="http://www.w3.org/2000/svg" xmlns:xlink="http://www.w3.org/1999/xlink" x="0px" y="0px"
	 viewBox="0 0 805 330.8" style="enable-background:new 0 0 805 330.8;" xml:space="preserve">
<style type="text/css">
	.st0{clip-path:url(#SVGID_00000179637455591476775500000001345980779549335452_);}
	.st1{fill:#A13323;}
	.st2{fill:#FEFFFF;}
</style>
<g>
	<defs>
		<polygon id="SVGID_1_" points="3.5,-133.6 4.5,-133.6 3.5,-132.6 		"/>
	</defs>
	<defs>
		<polygon id="SVGID_00000155859758308413818720000010756555307843476404_" points="1.5,-135.6 0.5,-135.6 1.5,-136.6 		"/>
	</defs>
	<clipPath id="SVGID_00000134950417541613095830000018152629172546045106_">
		<use xlink:href="#SVGID_1_"  style="overflow:visible;"/>
	</clipPath>
	
		<clipPath id="SVGID_00000071543616805003466530000002380885768967519372_" style="clip-path:url(#SVGID_00000134950417541613095830000018152629172546045106_);">
		<use xlink:href="#SVGID_00000155859758308413818720000010756555307843476404_"  style="overflow:visible;"/>
	</clipPath>
</g>
<rect class="st1" width="805" height="330.8"/>
<g transform="translate(88.52999877929688,84.45000076293945)">
	<g transform="translate(12,12)">
		<g transform="translate(1.1200027465820312,0)">
			<g transform="scale(1)">
				<g>
					<path class="st2" d="M-76,7.3h88.7l1.4-10.4h56.2L68.8,7.3h81.4l-3.8,27.2H16.4L-6.5,56.2H4.8L0.7,83.7l45.2-4.9l-3.8,25.5
						l-95.9,7.5l2.9-20.6h-44.3l60-56.8h-44.6L-76,7.3z M36.1-80.5h38.5l2.3-15.9h53.6l-2.3,15.9h35.9l-3.5,24.9h-36.2l-3.2,22h30.1
						l-3.5,24.9H31.4l3.5-24.9h32.7l3.2-22H32.6L36.1-80.5z M-32-9.5l1.2-9L-76.6-6.6l4.3-29.8l45.8-11.9l1.2-6.7l-43.7-2.9
						l4.1-29.8l43.7,2.9l1.7-11.6h48.4L16.4-9.5H-32z M28,44.3h57.7l8.7,10.7L141,41.7l-4.1,28.7l-23.8,7l29,34.5H84.2L28,44.3z
						 M189.6-48.6h38.2l2.9-15.6h-38.5l3.8-26.7h126.3l-3.8,26.7h-35.3l-2.3,15.6h37.7l-21.7,155.3H167.9L189.6-48.6z M324.9-17.1
						h58.8l6.7-46.9h-57.1l3.8-27.5h97.3L420.2,9h-57.7L353,77.1h49.3l12.7-9.9l-5.2,39.1H307.5L324.9-17.1z M217.1-24.6l-9.9,68.4
						h67.5l2-13.9h-29l7.5-54.5h-8.7l-11,57.1h-23.2l10.7-57.1H217.1z M202.1,82.3h67.5l2-15.6h-67.5L202.1,82.3z M284.6-24.6h-7.2
						l-5.2,37.4h7.2L284.6-24.6z M254.2-64.3l-2.9,15.6h7.5l2.3-15.6H254.2z M602.2-90.7h94.7L693.4-66H665l-2.9,19.1H696
						L679.5,70.7c-1,5.4-2.9,9.1-5.7,11c-2.8,1.9-5.9,2.9-9.4,2.9l0,0h-19.7l8.1-12.5l13-94.2h-7.2l-18.8,133.8h-35.3L623.3-22h-6.7
						L601.9,84.6h-26.9l18.5-131.5h33.3l2.9-19.1h-31L602.2-90.7z M477.9,111.8h-36.2l20.6-26.9l3.2-22.6h-26.9l35.9-64l1.7-12.5
						h-26.1L475.3-53l-11.9-38.2h38.5l1.7,7.8h28.7L511.5-51l2.9,12.2l-0.6,0.3L495.6,92.7c-1,5.6-3.1,10.2-6.5,13.7
						C485.6,110.1,481.9,111.8,477.9,111.8L477.9,111.8z M594.3-96.4l-20,141.1l-29.6,66.9H508l31.3-66.9l18.3-129.8L552-96.4H594.3
						z M511.2,35.9l13.6-96.2h24.6l-13.6,96.2H511.2z"/>
				</g>
			</g>
		</g>
		<g transform="translate(0,41.95000076293945)">
			<g>
				<g>
					<rect x="-100.5" y="104.7" class="st2" width="805" height="87.8"/>
				</g>
				<g transform="translate(5,2)">
					<g transform="scale(1, 1)">
						<g transform="scale(1)">
							<path class="st1" d="M-76.6,118.9L-76.6,118.9c0.2,0,0.6,0,1.1,0l0,0c2.7,0.4,5.4,0.6,8.2,0.6l0,0h35c1.7,0,3.9-0.1,6.8-0.3
								l0,0c1.2-0.2,2-0.3,2.1-0.3l0,0c0,0,0,0.2,0,0.6l0,0c-0.2,2.2-0.3,4.1-0.3,5.7l0,0v40.7c0,5.8,0.1,9.2,0.3,10.1l0,0h-6.3
								c0.2-2,0.3-3.7,0.3-5.2l0,0h-41.3l0.3,5.2h-6.3c0.4-1.1,0.6-4.6,0.6-10.6l0,0v-37.5C-76,125.8-76.2,122.8-76.6,118.9z
								 M-29.3,124.3h-41.3v41.5h41.3V124.3z M-63,132.5L-63,132.5c0.2,0,0.6,0,1.3,0l0,0c3.3,0.2,5.7,0.2,7.4,0.2l0,0h8.4
								c1.8,0,4.3-0.1,7.4-0.2l0,0c0.5,0,0.9,0,1,0l0,0c-0.2,3.1-0.2,5.8-0.2,8.1l0,0v8.7c0,2,0.1,4.7,0.2,8.2l0,0c-0.2,0-0.5,0-1,0
								l0,0c-2.5-0.2-4.6-0.3-6.3-0.3l0,0h-10.6c-2.4,0-4.9,0.1-7.6,0.3l0,0c0.3-1.3,0.5-4.2,0.5-8.7l0,0v-8.4
								C-62.4,138.3-62.6,135.7-63,132.5z M-43.1,137.6h-14.1v14.7h14.1V137.6z M52.3,114.8L52.3,114.8c5.8,1.4,8.5,2.4,8.2,3l0,0
								c0,0.2-0.2,0.4-0.5,0.8l0,0c-1.7,2.5-3.4,5.9-5.2,10.3l0,0h11.6c6.7-0.2,11-0.4,12.7-0.6l0,0v6c-1.4-0.2-4.2-0.2-8.4-0.2l0,0
								c-0.7,11.9-3.4,21.6-7.9,29l0,0c4.2,3.6,9.9,6.1,17.1,7.4l0,0c-2.2,1.8-3.9,4-5.2,6.5l0,0c-6.5-3.1-11.6-6.3-15.5-9.7l0,0
								c-3.8,3.4-8.8,7-15.2,10.6l0,0c-1.3-2.7-2.9-4.8-4.9-6.3l0,0c6.7-1.3,12-4,15.8-8.2l0,0c-2.7-4.5-4.9-11.3-6.5-20.4l0,0
								c-1.3,2.9-2.4,5.1-3.3,6.5l0,0c-1.4-1.6-3.4-2.7-6-3.2l0,0C45.3,135.3,49.6,124.8,52.3,114.8z M64.9,133.8L64.9,133.8H52.9
								c-0.7,1.8-1.5,3.5-2.4,5.2l0,0c-0.6,0.9-0.9,1.6-0.9,1.9l0,0l4.3-0.5c0.6,6.3,2.2,12.5,4.9,18.4l0,0
								C62.9,151,64.9,142.7,64.9,133.8z M38.8,171.8l0.3,6.3h-6.5c0-0.3,0-1,0-1.9l0,0c0.4-4.5,0.6-8.1,0.6-10.8l0,0v-6
								c-6,0.9-10.6,2.4-13.9,4.6l0,0l-3-6c0,0,0.1-0.1,0.3-0.2l0,0c2-1.8,3-3.6,3-5.4l0,0v-17.7c0-4-0.2-7-0.5-9l0,0
								c4.7-0.2,7.3,0.1,7.9,0.9l0,0c0,0.2-0.1,0.5-0.3,1l0,0c-0.9,1.5-1.3,3.6-1.3,6.3l0,0v21.7l7.9-1.9v-28.5c0-3.8-0.2-6.8-0.6-9
								l0,0c5.3,0,8,0.4,8.2,1.1l0,0c0,0.4-0.2,0.8-0.6,1.1l0,0c-0.9,1.8-1.3,4.2-1.3,7.3l0,0V171.8z M119.9,116.4L119.9,116.4
								l7.4,0.5h6l7.9-0.5c-0.4,0.7-0.6,3.3-0.6,7.6l0,0v47.6c0.5,2.7-2.6,4.2-9.5,4.6l0,0c-0.5-3.1-1.4-5.3-2.7-6.8l0,0
								c5.4,1.3,7.9,0.7,7.4-1.6l0,0v-15.2h-10.3c-0.2,9-2.4,17.3-6.5,24.7l0,0c-1.8-2.7-3.2-4.6-4.1-5.7l0,0
								c3.6-5.3,5.5-12.5,5.7-21.7l0,0V124C120.4,120.8,120.2,118.2,119.9,116.4z M172.6,116.4L172.6,116.4
								c-0.2,4.2-0.6,8.9-1.3,14.1l0,0c-0.2,3.8-4,5.7-11.4,5.7l0,0c-0.7-3.1-1.7-5.4-3-7.1l0,0c2.4,0.7,4.7,0.9,7.1,0.6l0,0
								c1.7,0.3,2.5-2.2,2.5-7.6l0,0h-14.4v17.6h14.9c2.2,0,4.6-0.2,7.3-0.5l0,0c-2.5,11.9-5,19.5-7.6,22.8l0,0
								c3.6,3.6,8,6.1,13,7.6l0,0l-4.9,5.7c-4.4-2.7-8.1-5.6-11.1-8.7l0,0c-0.4,0.5-0.9,1.2-1.6,1.9l0,0c-2.7,3.1-4.8,5.3-6.3,6.8
								l0,0l-3.5-4.9c3.6-2.5,6.3-5.3,7.9-8.2l0,0c-3.3-6.1-5.4-11.9-6.3-17.4l0,0h-1.9v22.5c0,2.7,0.2,5.6,0.5,8.5l0,0
								c0-0.4,0-0.2,0,0.5l0,0h-6c0-0.7,0.1-1.9,0.3-3.5l0,0c0.2-2.2,0.3-4,0.3-5.4l0,0v-43.7c0-2.2-0.2-4.4-0.6-6.5l0,0
								c0-0.3,0-0.6,0-0.8l0,0l7.4,0.5h12.5C164.4,116.9,166.4,116.8,172.6,116.4z M135.7,121.6h-10.3v10.9h10.3V121.6z
								 M135.7,148.5v-11.6h-10.3v11.6H135.7z M167.7,144.9H159c0.7,4.4,2.2,8.7,4.3,13l0,0C165.4,154.4,166.8,150,167.7,144.9
								L167.7,144.9z M234.5,115.1L234.5,115.1c0.9,0.2,2.1,0.4,3.8,0.8l0,0c2.7,0.7,4,1.1,3.8,1.3l0,0c0,0.2-0.2,0.5-0.6,0.8l0,0
								c-1.4,1.1-2.8,2.5-4.1,4.3l0,0h21.4l8.2-0.2c-4.7,8.1-9.8,14-15.2,17.6l0,0c8,3.4,16.5,5.2,25.5,5.2l0,0
								c0,0.2-0.2,0.6-0.5,1.1l0,0c-1.5,1.8-2.5,3.8-3.2,6l0,0c-10.5-1.6-19.4-4.6-26.7-9l0,0c-10.1,4.4-19.9,7.6-29.3,9.6l0,0
								c-0.9-2.2-2.2-4.1-3.8-5.7l0,0c-0.3-0.3-0.5-0.5-0.5-0.5l0,0c7.2,0.2,16.9-2,29-6.5l0,0c-3.1-3.1-6-6.7-8.9-10.8l0,0
								c-0.9,1.4-2.7,4-5.4,7.6l0,0c-0.7,1.1-1.4,2-1.9,2.7l0,0c-1.8-1.6-3.9-2.6-6.3-3l0,0C226.3,129,231.2,122,234.5,115.1z
								 M257.2,127.3L257.2,127.3h-19.3c2.5,4,5.5,7.1,9,9.5l0,0C248,136.8,251.4,133.6,257.2,127.3z M241.5,146.8L241.5,146.8
								c0.7,0.2,2,0.4,3.8,0.5l0,0c2.9,0.4,4.3,0.7,4.3,0.9l0,0c0,0.2-0.3,0.5-0.8,1l0,0c-0.3,0.4-0.6,0.8-0.8,1.1l0,0
								c-0.2,0.3-0.3,1.1-0.3,2.2l0,0c-0.2,1.1-0.2,1.9-0.2,2.4l0,0H261c2.9,0,5.4-0.2,7.6-0.6l0,0c-0.3,2.5-0.9,5.8-1.6,9.8l0,0
								c-0.5,5.1-1.1,8.2-1.6,9.3l0,0c-1.6,2.7-6,4.1-13,4.1l0,0c-0.5-2.5-1.5-4.7-3-6.5l0,0c5.3,0.7,8.5,0.7,9.8-0.2l0,0
								c0.9-1.1,1.7-4.7,2.2-10.6l0,0h-14.9c-1.6,8.7-9.9,14.6-24.7,17.7l0,0c-1.1-2-2.4-3.7-4.1-5.2l0,0c-0.3-0.3-0.5-0.5-0.5-0.5
								l0,0c13.8-0.9,21.6-4.9,23.6-11.9l0,0H232c-2.5,0-4.8,0.2-6.8,0.5l0,0c-0.5,0-0.9,0-1.1,0l0,0v-6c0.2,0,0.7,0,1.4,0l0,0
								c2.2,0.2,4.3,0.3,6.5,0.3l0,0h9.8c0.2-2.4,0.1-4.7-0.3-7.1l0,0C241.5,147.4,241.5,147,241.5,146.8z M351.7,114.3L351.7,114.3
								c0.7,0.2,1.6,0.4,2.7,0.8l0,0c2.5,0.7,3.7,1.1,3.5,1.3l0,0c0,0.2-0.4,0.7-1.1,1.4l0,0c-1.1,1.1-2.1,2.1-3,3l0,0h14.4
								c2.9,0,5.1-0.1,6.5-0.3l0,0v4.9c-1.2-0.2-3.4-0.3-6.5-0.3l0,0h-6.8c1.1,3.1,1.9,5.3,2.4,6.8l0,0l-6.3,1.1c0-0.3,0-0.8,0-1.3
								l0,0c-0.2-2.4-0.6-4.5-1.1-6.5l0,0h-5.7c-1.3,1.5-2.5,3.1-3.5,4.9l0,0c-1.3-1.1-3.1-1.6-5.4-1.6l0,0c-0.3,0-0.5,0-0.5,0l0,0
								C345.3,124.9,348.8,120.2,351.7,114.3z M325.6,114.8L325.6,114.8c1.1,0.3,2.4,0.7,4.1,1.1l0,0c1.8,0.3,2.7,0.6,2.7,0.8l0,0
								c0,0.3-0.4,0.9-1.1,1.6l0,0c-1.1,0.9-2,1.7-2.7,2.4l0,0h8.7c4-0.2,6-0.3,6-0.3l0,0v4.9c-1.1-0.2-3.1-0.3-6-0.3l0,0h-3.8
								c0.2,0,0.6,0.8,1.1,2.4l0,0c0.5,1.6,1.1,3,1.6,4.1l0,0l-6,1c-0.2-2.2-0.8-4.7-1.9-7.6l0,0h-3.2c-0.5,0.5-1.3,1.4-2.2,2.7l0,0
								c-2,2.2-3.5,3.9-4.6,5.2l0,0c-1.6-1.4-3.5-2.3-5.7-2.7l0,0C317.6,126.1,322,120.9,325.6,114.8z M323.2,142.8L323.2,142.8
								c0.7,0.3,3.4,0.5,7.9,0.5l0,0h23.9c3.3,0,5.5-0.2,6.8-0.5l0,0c-0.2,1.4-0.2,3.1-0.2,4.9l0,0v4.9c0,3.2,0.1,4.9,0.2,4.9l0,0
								c0-0.2-2.3-0.3-6.8-0.3l0,0h-26.1v3.5h25.8c3.6,0,6.8-0.2,9.5-0.5l0,0l-0.6,5.4v6.8c0,2.4,0.1,4.4,0.3,6.3l0,0h-6.5l0.3-4.1
								h-28.8l0.3,4.3h-5.7c0.2-2.4,0.3-4.9,0.3-7.6l0,0V149C323.7,147,323.5,144.9,323.2,142.8z M356,147.4h-27.2v5.4H356V147.4z
								 M357.6,165h-28.8v6h28.8V165z M338.9,130.6l6.8-1.1c0.5,1.3,1.2,3.1,1.9,5.4l0,0h18.2c2.5,0,4.7-0.1,6.5-0.3l0,0
								c0.5,0,0.9,0,1.1,0l0,0c0,0-0.1,1.4-0.3,4.1l0,0v2.7c0,3.1,0.1,5.1,0.3,6l0,0h-6.3l0.3-3.8v-4.1h-47.8v3.5l0.3,3.8h-6.3
								c0.2-1.6,0.2-3.3,0.2-5.2l0,0v-3.2c0-2.4,0-3.6,0-3.8l0,0c3.1,0.2,5.6,0.3,7.6,0.3l0,0h20.1c-0.7-1.3-1.5-2.5-2.2-3.5l0,0
								C339.1,131,338.9,130.7,338.9,130.6L338.9,130.6z M443.9,119.7L443.9,119.7h17.7c5.4-0.2,8.1-0.2,8.1-0.2l0,0
								c-0.3,0.9-0.5,3.1-0.5,6.5l0,0v16.9c0,3.4,0.2,6.1,0.5,7.9l0,0c-0.2,0-0.4,0-0.8,0l0,0c-1.8-0.2-3.9-0.3-6.5-0.3l0,0h-7.1
								v7.4h5.2c5.8-0.2,8.7-0.3,8.7-0.3l0,0v5.4c-1.8-0.4-4.6-0.6-8.4-0.6l0,0h-5.4v7.4h11.4c2.9,0,5-0.2,6.3-0.6l0,0v4.9
								c-0.9-0.2-3-0.3-6.3-0.3l0,0H439c-3.8,0-6.8,0.1-9,0.3l0,0v-4.6c1.8,0.2,4.7,0.3,8.7,0.3l0,0h11.1v-7.4h-5.2
								c-3.6,0-6.3,0.2-8.1,0.6l0,0v-5.4c1.4,0.2,4.1,0.3,7.9,0.3l0,0h5.4v-7.4h-6.8c-2.4,0-4.5,0.1-6.5,0.3l0,0c-0.2,0-0.4,0-0.6,0
								l0,0c0.2,0,0.3-2.6,0.3-7.9l0,0v-16.9c0-1.6-0.1-3.5-0.3-5.7l0,0c0-0.4,0-0.7,0-0.8l0,0C439.3,119.6,441.9,119.7,443.9,119.7
								z M411.6,127.3v-5.4c1.1,0.2,3.2,0.3,6.3,0.3l0,0h8.7c4.5-0.2,6.8-0.3,6.8-0.3l0,0v5.4c-1.1-0.2-3.1-0.3-6-0.3l0,0h-2.4v14.1
								h1.6c2.2,0,4.1-0.1,5.7-0.3l0,0v5.4c-1.7-0.2-3.5-0.3-5.4-0.3l0,0h-1.9v15.5c2-0.5,4.5-1.5,7.4-3l0,0l0.2,6.2
								c-3.8,0.7-10.6,3-20.3,6.8l0,0l-1.6-6.3c2.5-0.4,5.6-1.1,9.2-2.2l0,0V146h-2.4c-1.8,0-3.6,0.1-5.4,0.3l0,0v-5.4
								c1.6,0.2,3.4,0.3,5.4,0.3l0,0h2.4V127H417C414.5,127,412.7,127.1,411.6,127.3L411.6,127.3z M449.9,133v-8.7h-8.4v8.7H449.9z
								 M464,124.3h-8.7v8.7h8.7V124.3z M449.9,145.7V137h-8.4v8.7H449.9z M464,137h-8.7v8.7h8.7V137z M535.6,114.5L535.6,114.5
								c4.5,0.7,7,1.4,7.4,1.9l0,0c0,0.2-0.2,0.6-0.6,1.1l0,0c-0.5,0.3-0.9,0.8-1.1,1.3l0,0c-0.3,0.7-1.1,2.7-2.1,6l0,0h13.6
								c5.8,0,9.9-0.2,12.2-0.5l0,0v6.3c-4.2-0.4-8.2-0.6-12.2-0.6l0,0h-14.7c-0.3,2-1.2,4.8-2.4,8.5l0,0h22
								c6.9,0,11.3-0.2,13.3-0.6l0,0v6c-3.6-0.4-8-0.6-13.3-0.6l0,0h-23.4c-1.8,4.9-2.8,7.3-3,7.1l0,0c0,0.2,0,0.3,0,0.3l0,0
								c0,0,0.1,0,0.3,0l0,0h23.6c2.2,0,4.9-0.4,8.2-1.1l0,0v6.5c-4.3,0.2-10.6,4-18.7,11.4l0,0c3.8,1.5,8.4,3.4,13.8,5.7l0,0
								l-4.6,5.4c-8-5.1-18.5-9.5-31.5-13.3l0,0l3.3-5.2c2.9,0.9,7.7,2.7,14.4,5.4l0,0c0.9-0.7,2.2-1.9,3.8-3.5l0,0
								c3.1-2.9,5.8-5.2,8.1-6.8l0,0c-10.3,0-16.8,0.1-19.5,0.3l0,0c-3.4,0-5.6,0.3-6.5,0.8l0,0l-2.1-5.7c1.8,0,3.5-2.5,5.2-7.4l0,0
								h-6.8c-4.2,0-8.2,0.2-12,0.6l0,0v-6c2.2,0.4,6.3,0.6,12.2,0.6l0,0h7.9c1.1-3.4,1.9-6.3,2.4-8.5l0,0h-5.7c-0.7,0-2.5,0-5.2,0
								l0,0c-2.7,0.2-4.5,0.3-5.4,0.3l0,0v-6c4,0.3,7.5,0.5,10.6,0.5l0,0h6.8C534.6,121.9,535.3,118.5,535.6,114.5z M620,137.3v-6
								c3.8,0.3,7.6,0.5,11.4,0.5l0,0h16c3.6,0,7.6-0.2,11.9-0.5l0,0v6c-4-0.3-8-0.5-11.9-0.5l0,0h-4.3c-0.7,0.5-1.9,1.4-3.5,2.4
								l0,0c-1.5,1.1-2.6,1.9-3.3,2.4l0,0c3.3,2.7,5.8,5.5,7.6,8.4l0,0c4.2-1.8,8.7-5.2,13.6-10l0,0c2.9,2,4.6,3.5,5.2,4.6l0,0
								c0,0.3-0.4,0.6-1.1,0.8l0,0c-0.9,0.2-1.8,0.6-2.7,1.3l0,0c-0.7,0.3-1.8,1-3.3,1.9l0,0c-0.7,0.5-1.2,0.9-1.6,1.1l0,0
								c2,8.8,7.5,14.5,16.6,17.1l0,0c-2.7,1.4-4.9,3.3-6.5,5.7l0,0c-8-4.9-12.9-11.7-14.7-20.6l0,0c-1.1,0.7-2.2,1.6-3.5,2.7l0,0
								c2,10,0.9,16.6-3.3,19.8l0,0c-2.5,1.8-6,2.8-10.6,3l0,0c-0.2-3.1-1-5.3-2.4-6.5l0,0c5.1,0.4,8.1,0.2,9-0.5l0,0
								c2.5-1.8,3.5-6.2,2.7-13l0,0c-7.3,6.9-16.7,12.6-28.3,17.1l0,0c-0.7-2.2-2.3-3.9-4.9-5.2l0,0c10.5-1.6,21.1-7.1,31.8-16.6
								l0,0c-0.9-1.4-1.6-2.5-2.1-3.2l0,0c-6.3,5.6-14.7,10.3-25,14.1l0,0c-0.9-2.2-2.4-3.9-4.3-5.2l0,0c9-1.1,17.9-5.1,26.6-12l0,0
								c-0.2-0.2-0.4-0.3-0.5-0.5l0,0c-0.5-0.9-1.2-1.5-1.9-1.9l0,0c-7.1,4.4-13.8,7.3-20.1,8.7l0,0c-0.7-2-2.1-3.7-4.1-5.2l0,0
								c9.4-0.9,18.4-4.5,27.1-10.8l0,0h-3.8C627.2,137,623.3,137.1,620,137.3L620,137.3z M634.7,116.4l7.6-1.1
								c0.9,3.6,1.4,6.1,1.6,7.4l0,0h16c2.4,0,5-0.3,7.9-0.8l0,0v5.4c0,2.9,0.2,5.2,0.6,6.8l0,0h-7.1c0.3-0.9,0.5-3.2,0.5-6.8l0,0
								h-44.3c0,2.7,0.2,5,0.5,7l0,0h-6.8c0.4-2.2,0.6-4.4,0.6-6.8l0,0v-5.4c1.8,0.3,4.2,0.5,7.3,0.5l0,0H638
								C636.8,120,635.7,117.9,634.7,116.4L634.7,116.4z"/>
						</g>
					</g>
				</g>
			</g>
		</g>
	</g>
</g>
</svg>
